<?xml version="1.0" encoding="utf-8"?>
<!-- Generator: Adobe Illustrator 23.0.1, SVG Export Plug-In . SVG Version: 6.00 Build 0)  -->
<svg version="1.1" id="Слой_1" xmlns="http://www.w3.org/2000/svg" xmlns:xlink="http://www.w3.org/1999/xlink" x="0px" y="0px"
	 viewBox="0 0 824.9 389.4" style="enable-background:new 0 0 824.9 389.4;" xml:space="preserve">
<style type="text/css">
	.st0{fill:url(#SVGID_1_);}
	.st1{fill:url(#SVGID_2_);}
</style>
<g>
	<g>
		<path d="M820.6,233.2h-31.6c-2.4,0-4.3-1.9-4.3-4.3V4.4c0-2.4-1.9-4.3-4.3-4.3h-59.2c-2.4,0-4.3,1.9-4.3,4.3v224.5
			c0,2.4-1.9,4.3-4.3,4.3H649c-2.4,0-4.3-1.9-4.3-4.3V4.4c0-2.4-1.9-4.3-4.3-4.3h-59.2c-2.4,0-4.3,1.9-4.3,4.3v224.5
			c0,2.4-1.9,4.3-4.3,4.3h-63.4c-2.4,0-4.3-1.9-4.3-4.3V4.4c0-2.4-1.9-4.3-4.3-4.3h-53.8c-4.6,0-5.6,2.2-5,5.7
			c0.6,3.5,33,144.4,33.9,148.3c0.9,4,2.7,12.3-4.8,12.3s-33.8,0.1-38.7,0.1s-6.7,2.4-6.7,7.4c0,4.4,10.9,116,11.2,119.2
			c0.3,3.4,0.6,3.7,3.5,3.7H757c2.4,0,4.3,1.9,4.3,4.3v84c0,2.4,1.9,4.3,4.3,4.3h55c2.4,0,4.3-1.9,4.3-4.3V237.5
			C824.9,235.2,822.9,233.2,820.6,233.2z"/>
		<path d="M356.2,135.2c-4.1-9.7,0.6-11.4,3.9-11.4s27.2,0.3,34.1,0.3c6.8,0,4.6-5,3.1-9.8c-1.5-4.8-34.3-94.6-37.5-103.4
			c-3.2-8.7-8.9-9.7-16.2-9.7s-35.9-1.2-78-1.2c-38.9,0-70.6,8.9-95,26.6c-2.4-2.5-5-4.9-7.8-7.1C146.1,6.5,121.5,0,89,0
			c-25.6,0-54,0.8-85.2,2.3C1.7,2.4,0,4.2,0,6.3v284.9c0,2.1,1.6,3.8,3.7,4c17.5,1.5,44.5,2.2,80.8,2.2c33.3,0,60.2-7.7,80.6-23.1
			c0.6-0.5,1.3-1,1.9-1.5c8.7,6.1,20,11.4,34,15.9c17.9,5.7,36.6,8.6,56,8.6c44,0,151.8,0,166.7,0c1.1,0,1.5-0.6,0.9-1.9
			C417.2,278,360.1,144.2,356.2,135.2z M67.2,68.2c0-2,1.5-3.7,3.5-4C78,63.4,83.8,63,88.2,63c9.2,0,16.9,2.4,23.1,7.1
			c6.2,4.8,9.2,11.2,9.2,19.3c0,19-10.4,28.6-31.1,28.6H71.2c-2.2,0-4-1.8-4-4V68.2z M89.9,234.4c-7.5,0-14-0.6-19.6-1.8
			c-1.8-0.4-3.1-2-3.1-3.9v-47.9c0-2.2,1.8-4,4-4h22.1c23.8,0,35.7,8.8,35.7,26.5C128.9,224,115.9,234.4,89.9,234.4z M310.9,220.5
			c-15.5,10.1-33.9,15.2-55.2,15.2c-22.6,0-42.7-6-60.1-18c0.3-3.6,0.5-7.2,0.5-11c0-17.1-3.9-31.4-11.6-42.8
			c-7.7-11.5-17.8-19.6-30.5-24.4v-0.8c19.9-13.2,30.9-31.9,33.2-56.1c18.6-13.9,39.3-20.8,62.3-20.8c22.2,0,41,4.6,56.6,13.7
			c15.6,9.2,26.5,22.4,32.8,39.6h-107c-3.3,0-5.9,2.6-5.9,5.9v49.7c0,3.3,2.6,5.9,5.9,5.9h109.4
			C336.6,195.7,326.4,210.4,310.9,220.5z"/>
	</g>
	<g>
		<linearGradient id="SVGID_1_" gradientUnits="userSpaceOnUse" x1="8.2095" y1="7.8914" x2="824.7942" y2="305.1039">
			<stop  offset="0.1697" style="stop-color:#183294"/>
			<stop  offset="0.868" style="stop-color:#2A48BE"/>
		</linearGradient>
		<path class="st0" d="M820.6,233.2h-31.6c-2.4,0-4.3-1.9-4.3-4.3V4.4c0-2.4-1.9-4.3-4.3-4.3h-59.2c-2.4,0-4.3,1.9-4.3,4.3v224.5
			c0,2.4-1.9,4.3-4.3,4.3H649c-2.4,0-4.3-1.9-4.3-4.3V4.4c0-2.4-1.9-4.3-4.3-4.3h-59.2c-2.4,0-4.3,1.9-4.3,4.3v224.5
			c0,2.4-1.9,4.3-4.3,4.3h-63.4c-2.4,0-4.3-1.9-4.3-4.3V4.4c0-2.4-1.9-4.3-4.3-4.3h-53.8c-4.6,0-5.6,2.2-5,5.7
			c0.6,3.5,33,144.4,33.9,148.3c0.9,4,2.7,12.3-4.8,12.3s-33.8,0.1-38.7,0.1s-6.7,2.4-6.7,7.4c0,4.4,10.9,116,11.2,119.2
			c0.3,3.4,0.6,3.7,3.5,3.7H757c2.4,0,4.3,1.9,4.3,4.3v84c0,2.4,1.9,4.3,4.3,4.3h55c2.4,0,4.3-1.9,4.3-4.3V237.5
			C824.9,235.2,822.9,233.2,820.6,233.2z"/>
		<linearGradient id="SVGID_2_" gradientUnits="userSpaceOnUse" x1="8.2095" y1="7.8914" x2="824.7942" y2="305.1039">
			<stop  offset="0.1697" style="stop-color:#183294"/>
			<stop  offset="0.868" style="stop-color:#2A48BE"/>
		</linearGradient>
		<path class="st1" d="M356.2,135.2c-4.1-9.7,0.6-11.4,3.9-11.4s27.2,0.3,34.1,0.3c6.8,0,4.6-5,3.1-9.8
			c-1.5-4.8-34.3-94.6-37.5-103.4c-3.2-8.7-8.9-9.7-16.2-9.7s-35.9-1.2-78-1.2c-38.9,0-70.6,8.9-95,26.6c-2.4-2.5-5-4.9-7.8-7.1
			C146.1,6.5,121.5,0,89,0c-25.6,0-54,0.8-85.2,2.3C1.7,2.4,0,4.2,0,6.3v284.9c0,2.1,1.6,3.8,3.7,4c17.5,1.5,44.5,2.2,80.8,2.2
			c33.3,0,60.2-7.7,80.6-23.1c0.6-0.5,1.3-1,1.9-1.5c8.7,6.1,20,11.4,34,15.9c17.9,5.7,36.6,8.6,56,8.6c44,0,151.8,0,166.7,0
			c1.1,0,1.5-0.6,0.9-1.9C417.2,278,360.1,144.2,356.2,135.2z M67.2,68.2c0-2,1.5-3.7,3.5-4C78,63.4,83.8,63,88.2,63
			c9.2,0,16.9,2.4,23.1,7.1c6.2,4.8,9.2,11.2,9.2,19.3c0,19-10.4,28.6-31.1,28.6H71.2c-2.2,0-4-1.8-4-4V68.2z M89.9,234.4
			c-7.5,0-14-0.6-19.6-1.8c-1.8-0.4-3.1-2-3.1-3.9v-47.9c0-2.2,1.8-4,4-4h22.1c23.8,0,35.7,8.8,35.7,26.5
			C128.9,224,115.9,234.4,89.9,234.4z M310.9,220.5c-15.5,10.1-33.9,15.2-55.2,15.2c-22.6,0-42.7-6-60.1-18c0.3-3.6,0.5-7.2,0.5-11
			c0-17.1-3.9-31.4-11.6-42.8c-7.7-11.5-17.8-19.6-30.5-24.4v-0.8c19.9-13.2,30.9-31.9,33.2-56.1c18.6-13.9,39.3-20.8,62.3-20.8
			c22.2,0,41,4.6,56.6,13.7c15.6,9.2,26.5,22.4,32.8,39.6h-107c-3.3,0-5.9,2.6-5.9,5.9v49.7c0,3.3,2.6,5.9,5.9,5.9h109.4
			C336.6,195.7,326.4,210.4,310.9,220.5z"/>
	</g>
</g>
<g>
	<path d="M0,366.8v-48.5c6.4-0.2,10.9-0.3,13.3-0.3c5.3,0,9.2,1.1,11.8,3.2c2.6,2.1,3.9,5.1,3.9,8.9c0,2.8-0.7,5.2-2.2,7.1
		c-1.5,1.9-3.5,3.3-6.1,4.2v0.1c3.1,0.5,5.6,1.8,7.4,3.8c1.8,2,2.7,4.6,2.7,7.8c0,4.6-1.6,8.1-4.7,10.5c-3.2,2.4-7.5,3.6-12.9,3.6
		C7.7,367.1,3.4,367,0,366.8z M13.2,323.6c-1.4,0-3.8,0.1-7.3,0.2v15.7h7.8c2.7,0,5-0.7,6.7-2.2c1.8-1.5,2.6-3.4,2.6-5.9
		C23.1,326.2,19.8,323.6,13.2,323.6z M13.8,344.7H5.9v16.5c1.9,0.2,4.4,0.3,7.5,0.3c3.7,0,6.5-0.8,8.4-2.3c2-1.5,3-3.7,3-6.6
		c0-2.5-1-4.5-2.9-5.9C20,345.4,17.3,344.7,13.8,344.7z"/>
	<path d="M39,342.6c0-7,2.3-13,7-17.8c4.7-4.8,10.6-7.2,17.8-7.2c7.1,0,13,2.3,17.7,7c4.7,4.7,7.1,10.7,7.1,18
		c0,7.1-2.4,13.1-7.1,17.9c-4.7,4.7-10.6,7.1-17.7,7.1c-7.1,0-13-2.3-17.8-7C41.4,355.9,39,349.9,39,342.6z M45.3,342.6
		c0,5.5,1.8,10.1,5.4,13.9c3.6,3.7,8,5.6,13.2,5.6c5.5,0,9.9-1.9,13.3-5.6c3.5-3.7,5.2-8.3,5.2-13.9s-1.8-10.2-5.4-13.9
		c-3.6-3.7-8-5.6-13.2-5.6c-5.3,0-9.8,1.8-13.3,5.5C47.1,332.3,45.3,336.9,45.3,342.6z"/>
	<path d="M133.4,366.9h-5.9v-43.1h-17.6L109,333c-0.6,6-1.3,11.2-2.2,15.5c-0.9,4.3-1.8,7.7-2.8,10.1c-1,2.5-2.2,4.4-3.6,5.7
		c-1.4,1.3-2.7,2.2-4,2.5c-1.3,0.3-2.8,0.4-4.4,0.1l0.1-5.9c1,0.1,1.8,0.1,2.5-0.2c0.7-0.3,1.5-1,2.4-2.1c1-1.2,1.9-2.9,2.6-5.2
		c1.9-5.2,3.2-13.7,4-25.4l0.7-9.7h29.1V366.9z"/>
	<path d="M153.9,366.9H148v-48.6h27.1v5.6h-21.2V366.9z"/>
	<path d="M177.4,342.6c0-7,2.3-13,7-17.8c4.7-4.8,10.6-7.2,17.8-7.2c7.1,0,13,2.3,17.7,7c4.7,4.7,7.1,10.7,7.1,18
		c0,7.1-2.4,13.1-7.1,17.9c-4.7,4.7-10.6,7.1-17.7,7.1c-7.1,0-13-2.3-17.8-7C179.7,355.9,177.4,349.9,177.4,342.6z M183.6,342.6
		c0,5.5,1.8,10.1,5.4,13.9c3.6,3.7,8,5.6,13.2,5.6c5.5,0,9.9-1.9,13.3-5.6c3.5-3.7,5.2-8.3,5.2-13.9s-1.8-10.2-5.4-13.9
		c-3.6-3.7-8-5.6-13.2-5.6c-5.3,0-9.8,1.8-13.3,5.5C185.4,332.3,183.6,336.9,183.6,342.6z"/>
	<path d="M283.6,344.9h-24.1v-5.6h24c-0.6-5-2.7-9-6.2-11.8c-3.5-2.9-8-4.3-13.5-4.3c-4.8,0-8.9,1.3-12.3,4l-2.3-4.4
		c3.8-3.4,9.1-5.1,16-5.1c7.2,0,13.1,2.3,17.6,6.8c4.5,4.5,6.7,10.5,6.7,18.1c0,7.5-2.3,13.5-6.8,18.2c-4.5,4.6-10.5,6.9-18.1,6.9
		c-6.6,0-12-1.7-16.2-5.1l2.6-4.9c3.9,3,8.4,4.4,13.5,4.4c5.2,0,9.5-1.5,13-4.6C281.2,354.3,283.2,350.1,283.6,344.9z"/>
	<path d="M334.4,366.9h-5.9v-43.1h-17.6L310,333c-0.6,6-1.3,11.2-2.2,15.5c-0.9,4.3-1.8,7.7-2.8,10.1c-1,2.5-2.2,4.4-3.6,5.7
		c-1.4,1.3-2.7,2.2-4,2.5c-1.3,0.3-2.8,0.4-4.4,0.1l0.1-5.9c1,0.1,1.8,0.1,2.5-0.2c0.7-0.3,1.5-1,2.4-2.1c1-1.2,1.9-2.9,2.6-5.2
		c1.9-5.2,3.2-13.7,4-25.4l0.7-9.7h29.1V366.9z"/>
	<path d="M377.2,366.9H349v-48.6h27.4v5.6h-21.5v15.7h19.5v5.6h-19.5v16.3h22.2V366.9z"/>
	<path d="M394.9,366.9H389v-48.6h5.9V366.9z M417.4,318.2h7.2l-21.7,22.9l22.8,25.8h-7.6l-22-25.4L417.4,318.2z"/>
	<path d="M443.9,323.8h-17v-5.6h40v5.6h-17v43.1h-5.9V323.8z"/>
	<path d="M480.8,348.2v18.7h-5.9v-48.6c1.9,0,4,0,6.2-0.1c2.2,0,4.4-0.1,6.5-0.1c6.4,0,11,1.4,13.8,4.3c2.8,2.8,4.2,6.4,4.2,10.8
		c0,4.2-1.5,7.8-4.6,10.8c-3,3-7.3,4.4-12.9,4.4C485.1,348.5,482.7,348.4,480.8,348.2z M488.1,323.7c-0.8,0-3.3,0-7.4,0.1v18.8
		c2.9,0.2,5.3,0.3,7.1,0.3c3.6,0,6.4-0.9,8.4-2.6c2-1.7,3.1-4.1,3.1-7.2c0-3-0.9-5.3-2.8-7C494.6,324.5,491.8,323.7,488.1,323.7z"/>
	<path d="M511.9,342.6c0-7,2.3-13,7-17.8c4.7-4.8,10.6-7.2,17.8-7.2c7.1,0,13,2.3,17.7,7c4.7,4.7,7.1,10.7,7.1,18
		c0,7.1-2.4,13.1-7.1,17.9c-4.7,4.7-10.6,7.1-17.7,7.1c-7.1,0-13-2.3-17.8-7C514.2,355.9,511.9,349.9,511.9,342.6z M518.1,342.6
		c0,5.5,1.8,10.1,5.4,13.9c3.6,3.7,8,5.6,13.2,5.6c5.5,0,9.9-1.9,13.3-5.6c3.5-3.7,5.2-8.3,5.2-13.9s-1.8-10.2-5.3-13.9
		c-3.6-3.7-8-5.6-13.2-5.6c-5.3,0-9.8,1.8-13.3,5.5C519.9,332.3,518.1,336.9,518.1,342.6z"/>
	<path d="M643.5,366.9h-55.6v-48.6h5.9v43.1h18.4v-43.1h5.9v43.1h18.4v-43.1h5.9v43.1h6.6v14.6h-5.6V366.9z"/>
	<path d="M693.2,328l-29.5,38.9h-5.2v-48.6h5.9v38.9l29.5-38.9h5.2v48.6h-5.9V328z"/>
	<path d="M724.1,323.8h-17v-5.6h40v5.6h-17v43.1h-5.9V323.8z"/>
</g>
</svg>
