<?xml version="1.0" encoding="utf-8"?>
<!-- Generator: Adobe Illustrator 21.0.0, SVG Export Plug-In . SVG Version: 6.00 Build 0)  -->
<svg version="1.1" id="Layer_1" xmlns="http://www.w3.org/2000/svg" xmlns:xlink="http://www.w3.org/1999/xlink" x="0px" y="0px"
	 viewBox="0 0 420 336" style="enable-background:new 0 0 420 336;" xml:space="preserve">
<style type="text/css">
	.st0{fill:#F9BB30;}
</style>
<g>
	<path class="st0" d="M282.4,176.3c0-2.9-0.4-4.9-1.1-6l-2.3-1.2l-4.5,0.8c-3.7,0.8-7.1,1.2-10.1,1.2c-15.4,0-27.8-3.8-37.1-11.4
		c-9.4-7.6-14.1-19-14.1-34.2c0-16.3,5.2-28.7,15.5-37.3c10.3-8.5,22.8-12.8,37.4-12.8c14.3,0,27,4.8,38.3,14.4
		c11.3,9.6,16.9,23.1,16.9,40.5c0,24-8,49.3-23.9,75.9c-15.9,26.6-35.3,48.5-58.2,65.9c-8.6,6.1-14.1,9.2-16.3,9.2
		c-3.4-1.6-5.1-3.1-5.1-4.4c0-2.1,1.5-4.7,4.5-7.6c21.4-19.5,36.8-36.8,46.1-51.9C277.8,202.2,282.4,188.5,282.4,176.3z
		 M149.1,176.3c0-2.9-0.4-4.9-1.1-6l-2.3-1.2l-4.5,0.8c-3.7,0.8-7.1,1.2-10.1,1.2c-15.4,0-27.8-3.8-37.1-11.4
		c-9.4-7.6-14.1-19-14.1-34.2c0-16.3,5.2-28.7,15.5-37.3c10.3-8.5,22.8-12.8,37.4-12.8c14.3,0,27,4.8,38.3,14.4
		c11.3,9.6,16.9,23.1,16.9,40.5c0,24-8,49.3-23.9,75.9c-15.9,26.6-35.3,48.5-58.2,65.9c-8.6,6.1-14.1,9.2-16.3,9.2
		c-3.4-1.6-5.1-3.1-5.1-4.4c0-2.1,1.5-4.7,4.5-7.6c21.4-19.5,36.8-36.8,46.1-51.9C144.4,202.2,149.1,188.5,149.1,176.3z"/>
</g>
</svg>
