<?xml version="1.0" encoding="utf-8"?>
<!-- Generator: Adobe Illustrator 21.0.0, SVG Export Plug-In . SVG Version: 6.00 Build 0)  -->
<svg version="1.1" id="Layer_1" xmlns="http://www.w3.org/2000/svg" xmlns:xlink="http://www.w3.org/1999/xlink" x="0px" y="0px"
	 viewBox="0 0 512 512" style="enable-background:new 0 0 512 512;" xml:space="preserve">
<title></title>
<g id="_1">
	<path d="M397.8,316H192.6c-7,0-13.1-4.8-14.6-11.7l-34.5-150.5c-1.9-8.1,3.2-16.1,11.3-18c1.1-0.3,2.2-0.4,3.4-0.4h274.3
		c8.3,0,15,6.7,15,15c0,1.1-0.1,2.3-0.4,3.4l-34.6,150.5C410.8,311.2,404.8,316,397.8,316z"/>
	<path d="M222,450c-31.7,0-57.5-25.7-57.5-57.5c0-31.7,25.7-57.5,57.5-57.5s57.5,25.7,57.5,57.5C279.4,424.3,253.7,450,222,450z"/>
	<path d="M368.4,450c-31.7,0-57.5-25.7-57.5-57.5s25.7-57.5,57.5-57.5s57.5,25.7,57.5,57.5C425.9,424.3,400.2,450,368.4,450z"/>
	<path d="M158.1,165.5c-6.5,0-12.2-4.1-14.2-10.3L118.1,78H70.7c-8.3,0-15-6.7-15-15s6.7-15,15-15H129c6.5,0,12.2,4.1,14.2,10.3
		l29.1,87.5c2.6,7.9-1.6,16.4-9.5,19C161.3,165.2,159.7,165.5,158.1,165.5L158.1,165.5z"/>
</g>
</svg>
